<?xml version="1.0" encoding="UTF-8"?>
<svg viewBox="0 0 320 320" xmlns="http://www.w3.org/2000/svg">
<defs>
<style type="text/css">rect {
                  height: 12px;
                  width: 12px;
                  stroke-width: 0px;
                  stroke: red
                }</style>
</defs>
<rect fill="#1b3c27"/>
<rect x="10" fill="#000507"/>
<rect x="20" fill="#000004"/>
<rect x="30" fill="#414c46"/>
<rect x="40" fill="#636778"/>
<rect x="50" fill="#6d6f80"/>
<rect x="60" fill="#5b5f63"/>
<rect x="70" fill="#5b5f6f"/>
<rect x="80" fill="#5f656e"/>
<rect x="90" fill="#605d53"/>
<rect x="100" fill="#565966"/>
<rect x="110" fill="#4d505d"/>
<rect x="120" fill="#505355"/>
<rect x="130" fill="#52484d"/>
<rect x="140" fill="#2e4a58"/>
<rect x="150" fill="#2a3641"/>
<rect x="160" fill="#3f3f3a"/>
<rect x="170" fill="#272c30"/>
<rect x="180" fill="#020203"/>
<rect x="190" fill="#010101"/>
<rect x="200" fill="#030403"/>
<rect x="210" fill="#020202"/>
<rect x="220" fill="#000304"/>
<rect x="230" fill="#010101"/>
<rect x="240" fill="#081a0a"/>
<rect x="250" fill="#141111"/>
<rect x="260" fill="#020209"/>
<rect x="270" fill="#303d3a"/>
<rect x="280" fill="#252435"/>
<rect x="290" fill="#2e323b"/>
<rect x="300" fill="#2a3248"/>
<rect x="310" fill="#39373f"/>
<rect y="10" fill="#1d3c1b"/>
<rect x="10" y="10" fill="#192927"/>
<rect x="20" y="10" fill="#1d1624"/>
<rect x="30" y="10" fill="#2c3c3f"/>
<rect x="40" y="10" fill="#7f7072"/>
<rect x="50" y="10" fill="#6d616d"/>
<rect x="60" y="10" fill="#5b5b69"/>
<rect x="70" y="10" fill="#626469"/>
<rect x="80" y="10" fill="#656d7c"/>
<rect x="90" y="10" fill="#4f5859"/>
<rect x="100" y="10" fill="#626064"/>
<rect x="110" y="10" fill="#4d5657"/>
<rect x="120" y="10" fill="#514e52"/>
<rect x="130" y="10" fill="#424c50"/>
<rect x="140" y="10" fill="#324151"/>
<rect x="150" y="10" fill="#172f3b"/>
<rect x="160" y="10" fill="#191e2f"/>
<rect x="170" y="10" fill="#383139"/>
<rect x="180" y="10" fill="#010100"/>
<rect x="190" y="10" fill="#000201"/>
<rect x="200" y="10" fill="#090507"/>
<rect x="210" y="10" fill="#050505"/>
<rect x="220" y="10" fill="#000302"/>
<rect x="230" y="10" fill="#010101"/>
<rect x="240" y="10" fill="#0f1412"/>
<rect x="250" y="10" fill="#0f180e"/>
<rect x="260" y="10" fill="#000003"/>
<rect x="270" y="10" fill="#383e46"/>
<rect x="280" y="10" fill="#303b3e"/>
<rect x="290" y="10" fill="#393e4a"/>
<rect x="300" y="10" fill="#2f3735"/>
<rect x="310" y="10" fill="#3f3853"/>
<rect y="20" fill="#100811"/>
<rect x="10" y="20" fill="#415156"/>
<rect x="20" y="20" fill="#00020c"/>
<rect x="30" y="20" fill="#010101"/>
<rect x="40" y="20" fill="#11101c"/>
<rect x="50" y="20" fill="#404a52"/>
<rect x="60" y="20" fill="#605366"/>
<rect x="70" y="20" fill="#5b6366"/>
<rect x="80" y="20" fill="#515c5c"/>
<rect x="90" y="20" fill="#5a5f6f"/>
<rect x="100" y="20" fill="#61566a"/>
<rect x="110" y="20" fill="#4e4a54"/>
<rect x="120" y="20" fill="#4a4b49"/>
<rect x="130" y="20" fill="#444546"/>
<rect x="140" y="20" fill="#1a1920"/>
<rect x="150" y="20" fill="#060915"/>
<rect x="160" y="20" fill="#050504"/>
<rect x="170" y="20" fill="#252c36"/>
<rect x="180" y="20" fill="#010101"/>
<rect x="190" y="20" fill="#000202"/>
<rect x="200" y="20" fill="#010302"/>
<rect x="210" y="20" fill="#000004"/>
<rect x="220" y="20" fill="#000203"/>
<rect x="230" y="20" fill="#020404"/>
<rect x="240" y="20" fill="#141417"/>
<rect x="250" y="20" fill="#100b13"/>
<rect x="260" y="20" fill="#04060a"/>
<rect x="270" y="20" fill="#373c41"/>
<rect x="280" y="20" fill="#404044"/>
<rect x="290" y="20" fill="#353443"/>
<rect x="300" y="20" fill="#3f3d4e"/>
<rect x="310" y="20" fill="#373a54"/>
<rect y="30" fill="#030505"/>
<rect x="10" y="30" fill="#23312c"/>
<rect x="20" y="30" fill="#655c53"/>
<rect x="30" y="30" fill="#050505"/>
<rect x="40" y="30" fill="#0a0304"/>
<rect x="50" y="30" fill="#494c50"/>
<rect x="60" y="30" fill="#525968"/>
<rect x="70" y="30" fill="#616363"/>
<rect x="80" y="30" fill="#636162"/>
<rect x="90" y="30" fill="#5d6169"/>
<rect x="100" y="30" fill="#4d5050"/>
<rect x="110" y="30" fill="#494b4c"/>
<rect x="120" y="30" fill="#4a4c5f"/>
<rect x="130" y="30" fill="#453d44"/>
<rect x="140" y="30" fill="#524951"/>
<rect x="150" y="30" fill="#24191f"/>
<rect x="160" y="30" fill="#010101"/>
<rect x="170" y="30" fill="#1e2b24"/>
<rect x="180" y="30" fill="#020000"/>
<rect x="190" y="30" fill="#030202"/>
<rect x="200" y="30" fill="#010101"/>
<rect x="210" y="30" fill="#010101"/>
<rect x="220" y="30" fill="#010302"/>
<rect x="230" y="30" fill="#050303"/>
<rect x="240" y="30" fill="#0d080c"/>
<rect x="250" y="30" fill="#111116"/>
<rect x="260" y="30" fill="#020301"/>
<rect x="270" y="30" fill="#31384a"/>
<rect x="280" y="30" fill="#3b3e45"/>
<rect x="290" y="30" fill="#36333b"/>
<rect x="300" y="30" fill="#3c3b3d"/>
<rect x="310" y="30" fill="#3a3b40"/>
<rect y="40" fill="#050607"/>
<rect x="10" y="40" fill="#737075"/>
<rect x="20" y="40" fill="#73655f"/>
<rect x="30" y="40" fill="#07060e"/>
<rect x="40" y="40" fill="#060509"/>
<rect x="50" y="40" fill="#4a4551"/>
<rect x="60" y="40" fill="#565663"/>
<rect x="70" y="40" fill="#6a6c70"/>
<rect x="80" y="40" fill="#5b5d68"/>
<rect x="90" y="40" fill="#5d5e66"/>
<rect x="100" y="40" fill="#5a5258"/>
<rect x="110" y="40" fill="#525457"/>
<rect x="120" y="40" fill="#4e4a4b"/>
<rect x="130" y="40" fill="#3e3d47"/>
<rect x="140" y="40" fill="#414247"/>
<rect x="150" y="40" fill="#140308"/>
<rect x="160" y="40" fill="#040201"/>
<rect x="170" y="40" fill="#262118"/>
<rect x="180" y="40" fill="#010301"/>
<rect x="190" y="40" fill="#020202"/>
<rect x="200" y="40" fill="#080702"/>
<rect x="210" y="40" fill="#010101"/>
<rect x="220" y="40"/>
<rect x="230" y="40" fill="#000002"/>
<rect x="240" y="40" fill="#0e1412"/>
<rect x="250" y="40" fill="#1e1114"/>
<rect x="260" y="40" fill="#010304"/>
<rect x="270" y="40" fill="#3a3a4b"/>
<rect x="280" y="40" fill="#26272e"/>
<rect x="290" y="40" fill="#3f4149"/>
<rect x="300" y="40" fill="#3b484e"/>
<rect x="310" y="40" fill="#332f42"/>
<rect y="50" fill="#0a0505"/>
<rect x="10" y="50" fill="#6a7178"/>
<rect x="20" y="50" fill="#4b4841"/>
<rect x="30" y="50" fill="#030611"/>
<rect x="40" y="50" fill="#060607"/>
<rect x="50" y="50" fill="#443e4a"/>
<rect x="60" y="50" fill="#515458"/>
<rect x="70" y="50" fill="#625b67"/>
<rect x="80" y="50" fill="#565b66"/>
<rect x="90" y="50" fill="#5b565f"/>
<rect x="100" y="50" fill="#474a55"/>
<rect x="110" y="50" fill="#424643"/>
<rect x="120" y="50" fill="#494549"/>
<rect x="130" y="50" fill="#333e3d"/>
<rect x="140" y="50" fill="#1c1915"/>
<rect x="150" y="50" fill="#100504"/>
<rect x="160" y="50" fill="#020202"/>
<rect x="170" y="50" fill="#170c08"/>
<rect x="180" y="50" fill="#000201"/>
<rect x="190" y="50" fill="#020401"/>
<rect x="200" y="50"/>
<rect x="210" y="50" fill="#010101"/>
<rect x="220" y="50" fill="#000101"/>
<rect x="230" y="50" fill="#000402"/>
<rect x="240" y="50" fill="#060a00"/>
<rect x="250" y="50" fill="#09180b"/>
<rect x="260" y="50"/>
<rect x="270" y="50" fill="#30403e"/>
<rect x="280" y="50" fill="#3a403f"/>
<rect x="290" y="50" fill="#373d3d"/>
<rect x="300" y="50" fill="#3f4343"/>
<rect x="310" y="50" fill="#3f4250"/>
<rect y="60" fill="#79716a"/>
<rect x="10" y="60" fill="#71707d"/>
<rect x="20" y="60" fill="#625b62"/>
<rect x="30" y="60" fill="#4e494d"/>
<rect x="40" y="60" fill="#1e1d31"/>
<rect x="50" y="60" fill="#111b21"/>
<rect x="60" y="60" fill="#575659"/>
<rect x="70" y="60" fill="#5d585d"/>
<rect x="80" y="60" fill="#56575e"/>
<rect x="90" y="60" fill="#565b57"/>
<rect x="100" y="60" fill="#444c4e"/>
<rect x="110" y="60" fill="#43494a"/>
<rect x="120" y="60" fill="#3b4342"/>
<rect x="130" y="60" fill="#453542"/>
<rect x="140" y="60" fill="#41383b"/>
<rect x="150" y="60" fill="#242528"/>
<rect x="160" y="60" fill="#131918"/>
<rect x="170" y="60" fill="#030402"/>
<rect x="180" y="60" fill="#080b0b"/>
<rect x="190" y="60" fill="#050405"/>
<rect x="200" y="60" fill="#050502"/>
<rect x="210" y="60" fill="#030401"/>
<rect x="220" y="60" fill="#010101"/>
<rect x="230" y="60" fill="#020203"/>
<rect x="240" y="60" fill="#0f140e"/>
<rect x="250" y="60" fill="#121314"/>
<rect x="260" y="60" fill="#020301"/>
<rect x="270" y="60" fill="#383a40"/>
<rect x="280" y="60" fill="#3c3c4f"/>
<rect x="290" y="60" fill="#3a3942"/>
<rect x="300" y="60" fill="#393938"/>
<rect x="310" y="60" fill="#3d343e"/>
<rect y="70" fill="#695b2a"/>
<rect x="10" y="70" fill="#747884"/>
<rect x="20" y="70" fill="#68768e"/>
<rect x="30" y="70" fill="#5e6882"/>
<rect x="40" y="70" fill="#6a707e"/>
<rect x="50" y="70" fill="#5e626e"/>
<rect x="60" y="70" fill="#5a555a"/>
<rect x="70" y="70" fill="#505c5d"/>
<rect x="80" y="70" fill="#56595c"/>
<rect x="90" y="70" fill="#565658"/>
<rect x="100" y="70" fill="#41484a"/>
<rect x="110" y="70" fill="#454342"/>
<rect x="120" y="70" fill="#433f42"/>
<rect x="130" y="70" fill="#413f3a"/>
<rect x="140" y="70" fill="#272b35"/>
<rect x="150" y="70" fill="#2e2b36"/>
<rect x="160" y="70" fill="#0d0e0d"/>
<rect x="170" y="70" fill="#0a0b03"/>
<rect x="180" y="70" fill="#000403"/>
<rect x="190" y="70" fill="#030404"/>
<rect x="200" y="70" fill="#000202"/>
<rect x="210" y="70" fill="#010002"/>
<rect x="220" y="70" fill="#000302"/>
<rect x="230" y="70" fill="#000201"/>
<rect x="240" y="70" fill="#07140a"/>
<rect x="250" y="70" fill="#0c0705"/>
<rect x="260" y="70" fill="#070708"/>
<rect x="270" y="70" fill="#38344b"/>
<rect x="280" y="70" fill="#353142"/>
<rect x="290" y="70" fill="#3f4352"/>
<rect x="300" y="70" fill="#44413d"/>
<rect x="310" y="70" fill="#313140"/>
<rect y="80" fill="#635f3c"/>
<rect x="10" y="80" fill="#6e737f"/>
<rect x="20" y="80" fill="#040512"/>
<rect x="30" y="80" fill="#59535e"/>
<rect x="40" y="80" fill="#4e4b59"/>
<rect x="50" y="80" fill="#686b6a"/>
<rect x="60" y="80" fill="#4e5155"/>
<rect x="70" y="80" fill="#545658"/>
<rect x="80" y="80" fill="#636168"/>
<rect x="90" y="80" fill="#4b4f59"/>
<rect x="100" y="80" fill="#505157"/>
<rect x="110" y="80" fill="#4c4944"/>
<rect x="120" y="80" fill="#423d3d"/>
<rect x="130" y="80" fill="#333335"/>
<rect x="140" y="80" fill="#000302"/>
<rect x="150" y="80" fill="#010200"/>
<rect x="160" y="80" fill="#060403"/>
<rect x="170" y="80" fill="#010000"/>
<rect x="180" y="80" fill="#060500"/>
<rect x="190" y="80" fill="#010204"/>
<rect x="200" y="80" fill="#100908"/>
<rect x="210" y="80" fill="#0f1110"/>
<rect x="220" y="80"/>
<rect x="230" y="80" fill="#000300"/>
<rect x="240" y="80" fill="#0c0c04"/>
<rect x="250" y="80" fill="#0f0e1e"/>
<rect x="260" y="80" fill="#071115"/>
<rect x="270" y="80" fill="#2d323d"/>
<rect x="280" y="80" fill="#3c3a45"/>
<rect x="290" y="80" fill="#2d3240"/>
<rect x="300" y="80" fill="#3e4142"/>
<rect x="310" y="80" fill="#3e4045"/>
<rect y="90" fill="#746e5f"/>
<rect x="10" y="90" fill="#7a7189"/>
<rect x="20" y="90" fill="#676566"/>
<rect x="30" y="90" fill="#353c56"/>
<rect x="40" y="90" fill="#2c0909"/>
<rect x="50" y="90" fill="#66626f"/>
<rect x="60" y="90" fill="#50545e"/>
<rect x="70" y="90" fill="#5a5260"/>
<rect x="80" y="90" fill="#5e5a6c"/>
<rect x="90" y="90" fill="#535a5b"/>
<rect x="100" y="90" fill="#444c50"/>
<rect x="110" y="90" fill="#484443"/>
<rect x="120" y="90" fill="#3a2f34"/>
<rect x="130" y="90" fill="#130e0e"/>
<rect x="140" y="90" fill="#060f10"/>
<rect x="150" y="90" fill="#020202"/>
<rect x="160" y="90" fill="#080402"/>
<rect x="170" y="90" fill="#05050c"/>
<rect x="180" y="90" fill="#090502"/>
<rect x="190" y="90" fill="#0a060b"/>
<rect x="200" y="90" fill="#080806"/>
<rect x="210" y="90" fill="#060708"/>
<rect x="220" y="90" fill="#000001"/>
<rect x="230" y="90" fill="#050304"/>
<rect x="240" y="90" fill="#0d0c11"/>
<rect x="250" y="90" fill="#0e110d"/>
<rect x="260" y="90" fill="#070e11"/>
<rect x="270" y="90" fill="#332e32"/>
<rect x="280" y="90" fill="#2a2933"/>
<rect x="290" y="90" fill="#37314b"/>
<rect x="300" y="90" fill="#3b373b"/>
<rect x="310" y="90" fill="#3a3f49"/>
<rect y="100" fill="#79706f"/>
<rect x="10" y="100" fill="#6b727a"/>
<rect x="20" y="100" fill="#6a6164"/>
<rect x="30" y="100" fill="#1a1720"/>
<rect x="40" y="100" fill="#4f1e26"/>
<rect x="50" y="100" fill="#6b6b78"/>
<rect x="60" y="100" fill="#5e5b5b"/>
<rect x="70" y="100" fill="#5b5a63"/>
<rect x="80" y="100" fill="#4f5b5b"/>
<rect x="90" y="100" fill="#525957"/>
<rect x="100" y="100" fill="#4f5252"/>
<rect x="110" y="100" fill="#474442"/>
<rect x="120" y="100" fill="#13100c"/>
<rect x="130" y="100" fill="#030000"/>
<rect x="140" y="100" fill="#050500"/>
<rect x="150" y="100" fill="#1e2727"/>
<rect x="160" y="100" fill="#1b1b26"/>
<rect x="170" y="100" fill="#0e100d"/>
<rect x="180" y="100" fill="#1f2e36"/>
<rect x="190" y="100" fill="#0b0a09"/>
<rect x="200" y="100" fill="#1b1211"/>
<rect x="210" y="100" fill="#060708"/>
<rect x="220" y="100" fill="#020202"/>
<rect x="230" y="100" fill="#000304"/>
<rect x="240" y="100" fill="#17110b"/>
<rect x="250" y="100" fill="#080d0e"/>
<rect x="260" y="100" fill="#170e13"/>
<rect x="270" y="100" fill="#372f3d"/>
<rect x="280" y="100" fill="#3a3640"/>
<rect x="290" y="100" fill="#3d404a"/>
<rect x="300" y="100" fill="#3c3c56"/>
<rect x="310" y="100" fill="#3c3c49"/>
<rect y="110" fill="#645e61"/>
<rect x="10" y="110" fill="#625e76"/>
<rect x="20" y="110" fill="#323233"/>
<rect x="30" y="110" fill="#14203b"/>
<rect x="40" y="110" fill="#363643"/>
<rect x="50" y="110" fill="#4b4e53"/>
<rect x="60" y="110" fill="#55596b"/>
<rect x="70" y="110" fill="#625c5d"/>
<rect x="80" y="110" fill="#3d363b"/>
<rect x="90" y="110" fill="#52535c"/>
<rect x="100" y="110" fill="#48484a"/>
<rect x="110" y="110" fill="#484048"/>
<rect x="120" y="110" fill="#171417"/>
<rect x="130" y="110" fill="#0f0704"/>
<rect x="140" y="110" fill="#605658"/>
<rect x="150" y="110" fill="#5c444a"/>
<rect x="160" y="110" fill="#22251b"/>
<rect x="170" y="110" fill="#3e2f2e"/>
<rect x="180" y="110" fill="#20190f"/>
<rect x="190" y="110" fill="#361f22"/>
<rect x="200" y="110" fill="#0b0909"/>
<rect x="210" y="110" fill="#090400"/>
<rect x="220" y="110" fill="#0d0707"/>
<rect x="230" y="110" fill="#0f100c"/>
<rect x="240" y="110" fill="#12150e"/>
<rect x="250" y="110" fill="#0e161c"/>
<rect x="260" y="110" fill="#0b1013"/>
<rect x="270" y="110" fill="#2b242e"/>
<rect x="280" y="110" fill="#333b45"/>
<rect x="290" y="110" fill="#373930"/>
<rect x="300" y="110" fill="#363d4c"/>
<rect x="310" y="110" fill="#3a3d40"/>
<rect y="120" fill="#080310"/>
<rect x="10" y="120" fill="#150f2b"/>
<rect x="20" y="120" fill="#0d1921"/>
<rect x="30" y="120" fill="#383a55"/>
<rect x="40" y="120" fill="#3a3a4c"/>
<rect x="50" y="120" fill="#515165"/>
<rect x="60" y="120" fill="#6c6f78"/>
<rect x="70" y="120" fill="#504b56"/>
<rect x="80" y="120" fill="#615860"/>
<rect x="90" y="120" fill="#53525a"/>
<rect x="100" y="120" fill="#535056"/>
<rect x="110" y="120" fill="#4a4350"/>
<rect x="120" y="120" fill="#1e100b"/>
<rect x="130" y="120" fill="#6e585b"/>
<rect x="140" y="120" fill="#eec4c1"/>
<rect x="150" y="120" fill="#f1d0d4"/>
<rect x="160" y="120" fill="#ecd0d0"/>
<rect x="170" y="120" fill="#bca6ad"/>
<rect x="180" y="120" fill="#81747f"/>
<rect x="190" y="120" fill="#ae8f93"/>
<rect x="200" y="120" fill="#0a0909"/>
<rect x="210" y="120" fill="#111211"/>
<rect x="220" y="120" fill="#0e0405"/>
<rect x="230" y="120" fill="#100f0c"/>
<rect x="240" y="120" fill="#1a1513"/>
<rect x="250" y="120" fill="#171117"/>
<rect x="260" y="120" fill="#262328"/>
<rect x="270" y="120" fill="#3c3743"/>
<rect x="280" y="120" fill="#2e343e"/>
<rect x="290" y="120" fill="#423740"/>
<rect x="300" y="120" fill="#37393f"/>
<rect x="310" y="120" fill="#36404d"/>
<rect y="130" fill="#4a3a34"/>
<rect x="10" y="130" fill="#131518"/>
<rect x="20" y="130" fill="#020102"/>
<rect x="30" y="130" fill="#1c2230"/>
<rect x="40" y="130" fill="#2b3142"/>
<rect x="50" y="130" fill="#565d66"/>
<rect x="60" y="130" fill="#626a74"/>
<rect x="70" y="130" fill="#57575c"/>
<rect x="80" y="130" fill="#54525a"/>
<rect x="90" y="130" fill="#4e4e41"/>
<rect x="100" y="130" fill="#3f4039"/>
<rect x="110" y="130" fill="#414343"/>
<rect x="120" y="130" fill="#252113"/>
<rect x="130" y="130" fill="#bb998a"/>
<rect x="140" y="130" fill="#fee7d9"/>
<rect x="150" y="130" fill="#fffffd"/>
<rect x="160" y="130" fill="#fff"/>
<rect x="170" y="130" fill="#fff"/>
<rect x="180" y="130" fill="#f8f4f0"/>
<rect x="190" y="130" fill="#e4b4bc"/>
<rect x="200" y="130" fill="#634f45"/>
<rect x="210" y="130" fill="#121310"/>
<rect x="220" y="130" fill="#010500"/>
<rect x="230" y="130" fill="#13140f"/>
<rect x="240" y="130" fill="#11140c"/>
<rect x="250" y="130" fill="#0f0e0b"/>
<rect x="260" y="130" fill="#1c2226"/>
<rect x="270" y="130" fill="#30353e"/>
<rect x="280" y="130" fill="#3e3949"/>
<rect x="290" y="130" fill="#3f4042"/>
<rect x="300" y="130" fill="#2d3a31"/>
<rect x="310" y="130" fill="#3b4042"/>
<rect y="140" fill="#31232b"/>
<rect x="10" y="140" fill="#080a04"/>
<rect x="20" y="140" fill="#020205"/>
<rect x="30" y="140" fill="#020204"/>
<rect x="40" y="140" fill="#383041"/>
<rect x="50" y="140" fill="#5b5d64"/>
<rect x="60" y="140" fill="#6f7178"/>
<rect x="70" y="140" fill="#47484b"/>
<rect x="80" y="140" fill="#4d4d4f"/>
<rect x="90" y="140" fill="#4b4d4d"/>
<rect x="100" y="140" fill="#49463c"/>
<rect x="110" y="140" fill="#3a3b3e"/>
<rect x="120" y="140" fill="#1a0a05"/>
<rect x="130" y="140" fill="#f1ceb8"/>
<rect x="140" y="140" fill="#f1d1ce"/>
<rect x="150" y="140" fill="#fff"/>
<rect x="160" y="140" fill="#fff"/>
<rect x="170" y="140" fill="#fff"/>
<rect x="180" y="140" fill="#f9f9f7"/>
<rect x="190" y="140" fill="#f2d3d3"/>
<rect x="200" y="140" fill="#4f4544"/>
<rect x="210" y="140" fill="#040401"/>
<rect x="220" y="140" fill="#030100"/>
<rect x="230" y="140" fill="#0a0a03"/>
<rect x="240" y="140" fill="#080c04"/>
<rect x="250" y="140" fill="#160f0d"/>
<rect x="260" y="140" fill="#141816"/>
<rect x="270" y="140" fill="#333540"/>
<rect x="280" y="140" fill="#39393a"/>
<rect x="290" y="140" fill="#38313b"/>
<rect x="300" y="140" fill="#383b44"/>
<rect x="310" y="140" fill="#3f4045"/>
<rect y="150" fill="#7b747f"/>
<rect x="10" y="150" fill="#383846"/>
<rect x="20" y="150" fill="#2b2731"/>
<rect x="30" y="150" fill="#576070"/>
<rect x="40" y="150" fill="#060606"/>
<rect x="50" y="150" fill="#211329"/>
<rect x="60" y="150" fill="#5e626e"/>
<rect x="70" y="150" fill="#4d4850"/>
<rect x="80" y="150" fill="#49494d"/>
<rect x="90" y="150" fill="#4d4547"/>
<rect x="100" y="150" fill="#43414c"/>
<rect x="110" y="150" fill="#564a4e"/>
<rect x="120" y="150" fill="#f2d2d0"/>
<rect x="130" y="150" fill="#fdf4de"/>
<rect x="140" y="150" fill="#fbfef0"/>
<rect x="150" y="150" fill="#f9e7db"/>
<rect x="160" y="150" fill="#feffff"/>
<rect x="170" y="150" fill="#fff"/>
<rect x="180" y="150" fill="#fff"/>
<rect x="190" y="150" fill="#debec2"/>
<rect x="200" y="150" fill="#191213"/>
<rect x="210" y="150" fill="#010000"/>
<rect x="220" y="150" fill="#080707"/>
<rect x="230" y="150" fill="#0b0e0b"/>
<rect x="240" y="150" fill="#120a0d"/>
<rect x="250" y="150" fill="#090900"/>
<rect x="260" y="150" fill="#181011"/>
<rect x="270" y="150" fill="#302b3a"/>
<rect x="280" y="150" fill="#313735"/>
<rect x="290" y="150" fill="#382f3e"/>
<rect x="300" y="150" fill="#3c3b42"/>
<rect x="310" y="150" fill="#413a4c"/>
<rect y="160" fill="#19090a"/>
<rect x="10" y="160" fill="#010406"/>
<rect x="20" y="160" fill="#65636c"/>
<rect x="30" y="160" fill="#5a6173"/>
<rect x="40" y="160" fill="#2c2a35"/>
<rect x="50" y="160" fill="#170408"/>
<rect x="60" y="160" fill="#59585d"/>
<rect x="70" y="160" fill="#474645"/>
<rect x="80" y="160" fill="#504949"/>
<rect x="90" y="160" fill="#4e4845"/>
<rect x="100" y="160" fill="#3a372d"/>
<rect x="110" y="160" fill="#3f3230"/>
<rect x="120" y="160" fill="#eed5ca"/>
<rect x="130" y="160" fill="#fcf9ef"/>
<rect x="140" y="160" fill="#f8fbe9"/>
<rect x="150" y="160" fill="#efc5c7"/>
<rect x="160" y="160" fill="#f4e7d9"/>
<rect x="170" y="160" fill="#d8abaa"/>
<rect x="180" y="160" fill="#aeb4cb"/>
<rect x="190" y="160" fill="#dfaea9"/>
<rect x="200" y="160" fill="#08070a"/>
<rect x="210" y="160" fill="#070706"/>
<rect x="220" y="160" fill="#080403"/>
<rect x="230" y="160" fill="#13150d"/>
<rect x="240" y="160" fill="#0f0d0f"/>
<rect x="250" y="160" fill="#0a0c0b"/>
<rect x="260" y="160" fill="#090d03"/>
<rect x="270" y="160" fill="#2d3233"/>
<rect x="280" y="160" fill="#292e26"/>
<rect x="290" y="160" fill="#362d3c"/>
<rect x="300" y="160" fill="#353831"/>
<rect x="310" y="160" fill="#1e1f1d"/>
<rect y="170" fill="#06081b"/>
<rect x="10" y="170" fill="#080804"/>
<rect x="20" y="170" fill="#67676d"/>
<rect x="30" y="170" fill="#5c5e64"/>
<rect x="40" y="170" fill="#1f1d19"/>
<rect x="50" y="170" fill="#3e4347"/>
<rect x="60" y="170" fill="#635e63"/>
<rect x="70" y="170" fill="#48403c"/>
<rect x="80" y="170" fill="#4d4539"/>
<rect x="90" y="170" fill="#473d3d"/>
<rect x="100" y="170" fill="#353124"/>
<rect x="110" y="170" fill="#3a3428"/>
<rect x="120" y="170" fill="#6f594d"/>
<rect x="130" y="170" fill="#fffff7"/>
<rect x="140" y="170" fill="#fff"/>
<rect x="150" y="170" fill="#feffff"/>
<rect x="160" y="170" fill="#fcf5e5"/>
<rect x="170" y="170" fill="#f3cdcf"/>
<rect x="180" y="170" fill="#f4dfda"/>
<rect x="190" y="170" fill="#ecc0c4"/>
<rect x="200" y="170" fill="#060605"/>
<rect x="210" y="170" fill="#090804"/>
<rect x="220" y="170" fill="#0a0605"/>
<rect x="230" y="170" fill="#10130b"/>
<rect x="240" y="170" fill="#0a110a"/>
<rect x="250" y="170" fill="#0f0606"/>
<rect x="260" y="170" fill="#141d15"/>
<rect x="270" y="170" fill="#333332"/>
<rect x="280" y="170" fill="#38273c"/>
<rect x="290" y="170" fill="#3b4345"/>
<rect x="300" y="170" fill="#342f38"/>
<rect x="310" y="170" fill="#404341"/>
<rect y="180" fill="#480812"/>
<rect x="10" y="180" fill="#070505"/>
<rect x="20" y="180" fill="#54565c"/>
<rect x="30" y="180" fill="#60596a"/>
<rect x="40" y="180" fill="#342a1b"/>
<rect x="50" y="180" fill="#4b3423"/>
<rect x="60" y="180" fill="#655d58"/>
<rect x="70" y="180" fill="#4c392c"/>
<rect x="80" y="180" fill="#4a4636"/>
<rect x="90" y="180" fill="#473e3b"/>
<rect x="100" y="180" fill="#443d26"/>
<rect x="110" y="180" fill="#43332c"/>
<rect x="120" y="180" fill="#40281c"/>
<rect x="130" y="180" fill="#fdfeec"/>
<rect x="140" y="180" fill="#fff"/>
<rect x="150" y="180" fill="#fffffe"/>
<rect x="160" y="180" fill="#fefefb"/>
<rect x="170" y="180" fill="#ebbec4"/>
<rect x="180" y="180" fill="#fffffe"/>
<rect x="190" y="180" fill="#bda2a1"/>
<rect x="200" y="180" fill="#020602"/>
<rect x="210" y="180" fill="#080707"/>
<rect x="220" y="180" fill="#0b0706"/>
<rect x="230" y="180" fill="#090f00"/>
<rect x="240" y="180" fill="#0e0a06"/>
<rect x="250" y="180" fill="#060802"/>
<rect x="260" y="180" fill="#19170f"/>
<rect x="270" y="180" fill="#332329"/>
<rect x="280" y="180" fill="#271d1e"/>
<rect x="290" y="180" fill="#3c3a3c"/>
<rect x="300" y="180" fill="#333035"/>
<rect x="310" y="180" fill="#1f2438"/>
<rect y="190" fill="#2a180b"/>
<rect x="10" y="190" fill="#3a2116"/>
<rect x="20" y="190" fill="#585153"/>
<rect x="30" y="190" fill="#62616a"/>
<rect x="40" y="190" fill="#1d0d11"/>
<rect x="50" y="190" fill="#0f0e17"/>
<rect x="60" y="190" fill="#504843"/>
<rect x="70" y="190" fill="#38342f"/>
<rect x="80" y="190" fill="#4f4338"/>
<rect x="90" y="190" fill="#4a3a29"/>
<rect x="100" y="190" fill="#363225"/>
<rect x="110" y="190" fill="#493c30"/>
<rect x="120" y="190" fill="#2e2918"/>
<rect x="130" y="190" fill="#f5eee0"/>
<rect x="140" y="190" fill="#f9f9ed"/>
<rect x="150" y="190" fill="#f8f0e9"/>
<rect x="160" y="190" fill="#e6c1c5"/>
<rect x="170" y="190" fill="#d4abb1"/>
<rect x="180" y="190" fill="#f9f3e7"/>
<rect x="190" y="190" fill="#121115"/>
<rect x="200" y="190" fill="#070603"/>
<rect x="210" y="190" fill="#0c0301"/>
<rect x="220" y="190" fill="#070403"/>
<rect x="230" y="190" fill="#0e0e09"/>
<rect x="240" y="190" fill="#130c06"/>
<rect x="250" y="190" fill="#070405"/>
<rect x="260" y="190" fill="#1a1306"/>
<rect x="270" y="190" fill="#0c0a05"/>
<rect x="280" y="190" fill="#17150a"/>
<rect x="290" y="190" fill="#0d0a06"/>
<rect x="300" y="190" fill="#1c0509"/>
<rect x="310" y="190" fill="#100304"/>
<rect y="200" fill="#3e2524"/>
<rect x="10" y="200" fill="#301815"/>
<rect x="20" y="200" fill="#55514f"/>
<rect x="30" y="200" fill="#605354"/>
<rect x="40" y="200" fill="#4d454b"/>
<rect x="50" y="200" fill="#635354"/>
<rect x="60" y="200" fill="#614f4a"/>
<rect x="70" y="200" fill="#40321c"/>
<rect x="80" y="200" fill="#4f412f"/>
<rect x="90" y="200" fill="#493a2d"/>
<rect x="100" y="200" fill="#493e24"/>
<rect x="110" y="200" fill="#412d29"/>
<rect x="120" y="200" fill="#3c2823"/>
<rect x="130" y="200" fill="#a78473"/>
<rect x="140" y="200" fill="#f8f6eb"/>
<rect x="150" y="200" fill="#fffffd"/>
<rect x="160" y="200" fill="#fef7f5"/>
<rect x="170" y="200" fill="#f4decf"/>
<rect x="180" y="200" fill="#b9a6a4"/>
<rect x="190" y="200" fill="#99afca"/>
<rect x="200" y="200" fill="#0c171c"/>
<rect x="210" y="200" fill="#060300"/>
<rect x="220" y="200" fill="#160b07"/>
<rect x="230" y="200" fill="#0e0a03"/>
<rect x="240" y="200" fill="#1c0b01"/>
<rect x="250" y="200" fill="#160d01"/>
<rect x="260" y="200" fill="#161003"/>
<rect x="270" y="200" fill="#1e0e04"/>
<rect x="280" y="200" fill="#1e130d"/>
<rect x="290" y="200" fill="#16050a"/>
<rect x="300" y="200" fill="#18060a"/>
<rect x="310" y="200" fill="#060606"/>
<rect y="210" fill="#47342f"/>
<rect x="10" y="210" fill="#030202"/>
<rect x="20" y="210" fill="#5d5e54"/>
<rect x="30" y="210" fill="#5f4d49"/>
<rect x="40" y="210" fill="#655a57"/>
<rect x="50" y="210" fill="#5d544b"/>
<rect x="60" y="210" fill="#655339"/>
<rect x="70" y="210" fill="#4d322f"/>
<rect x="80" y="210" fill="#514133"/>
<rect x="90" y="210" fill="#746863"/>
<rect x="100" y="210" fill="#bebcc4"/>
<rect x="110" y="210" fill="#c5c9cd"/>
<rect x="120" y="210" fill="#c9cbcb"/>
<rect x="130" y="210" fill="#fdf8ea"/>
<rect x="140" y="210" fill="#a0897c"/>
<rect x="150" y="210" fill="#fffffd"/>
<rect x="160" y="210" fill="#fffbf2"/>
<rect x="170" y="210" fill="#a5958a"/>
<rect x="180" y="210" fill="#9c8484"/>
<rect x="190" y="210" fill="#ebf0fd"/>
<rect x="200" y="210" fill="#ddebf6"/>
<rect x="210" y="210" fill="#bbc9d6"/>
<rect x="220" y="210" fill="#a5a6aa"/>
<rect x="230" y="210" fill="#1c1114"/>
<rect x="240" y="210" fill="#1b140d"/>
<rect x="250" y="210" fill="#180900"/>
<rect x="260" y="210" fill="#23130f"/>
<rect x="270" y="210" fill="#1c1308"/>
<rect x="280" y="210" fill="#090901"/>
<rect x="290" y="210" fill="#0e0608"/>
<rect x="300" y="210" fill="#0c0d10"/>
<rect x="310" y="210" fill="#130b0c"/>
<rect y="220" fill="#171407"/>
<rect x="10" y="220" fill="#090508"/>
<rect x="20" y="220" fill="#635444"/>
<rect x="30" y="220" fill="#67503f"/>
<rect x="40" y="220" fill="#5c5240"/>
<rect x="50" y="220" fill="#615e4b"/>
<rect x="60" y="220" fill="#6b543d"/>
<rect x="70" y="220" fill="#c9c3c5"/>
<rect x="80" y="220" fill="#bebdc1"/>
<rect x="90" y="220" fill="#c5c7cd"/>
<rect x="100" y="220" fill="#cacbd1"/>
<rect x="110" y="220" fill="#d3ced1"/>
<rect x="120" y="220" fill="#f2eaee"/>
<rect x="130" y="220" fill="#efd5c8"/>
<rect x="140" y="220" fill="#fff"/>
<rect x="150" y="220" fill="#fffffa"/>
<rect x="160" y="220" fill="#fdfff3"/>
<rect x="170" y="220" fill="#d5b0ac"/>
<rect x="180" y="220" fill="#e8eaeb"/>
<rect x="190" y="220" fill="#f8fefd"/>
<rect x="200" y="220" fill="#c7d0de"/>
<rect x="210" y="220" fill="#dae9f4"/>
<rect x="220" y="220" fill="#d1cfdc"/>
<rect x="230" y="220" fill="#b8bac6"/>
<rect x="240" y="220" fill="#8d8c94"/>
<rect x="250" y="220" fill="#2a2724"/>
<rect x="260" y="220" fill="#231414"/>
<rect x="270" y="220" fill="#1e0d05"/>
<rect x="280" y="220" fill="#0e0506"/>
<rect x="290" y="220" fill="#0d0b08"/>
<rect x="300" y="220" fill="#090a02"/>
<rect x="310" y="220" fill="#06090b"/>
<rect y="230" fill="#55452c"/>
<rect x="10" y="230" fill="#281b16"/>
<rect x="20" y="230" fill="#695a46"/>
<rect x="30" y="230" fill="#6d4c4a"/>
<rect x="40" y="230" fill="#5a4639"/>
<rect x="50" y="230" fill="#6c5240"/>
<rect x="60" y="230" fill="#c1b6b3"/>
<rect x="70" y="230" fill="#e0dad9"/>
<rect x="80" y="230" fill="#d8d5de"/>
<rect x="90" y="230" fill="#e6e5e9"/>
<rect x="100" y="230" fill="#dcdde4"/>
<rect x="110" y="230" fill="#e5e3ee"/>
<rect x="120" y="230" fill="#fbfdfd"/>
<rect x="130" y="230" fill="#fff"/>
<rect x="140" y="230" fill="#f1e0d9"/>
<rect x="150" y="230" fill="#e7bca4"/>
<rect x="160" y="230" fill="#fff"/>
<rect x="170" y="230" fill="#fff"/>
<rect x="180" y="230" fill="#fff"/>
<rect x="190" y="230" fill="#f5fafb"/>
<rect x="200" y="230" fill="#edeef6"/>
<rect x="210" y="230" fill="#f1f0fa"/>
<rect x="220" y="230" fill="#dfd8ec"/>
<rect x="230" y="230" fill="#ced6e4"/>
<rect x="240" y="230" fill="#edf6fd"/>
<rect x="250" y="230" fill="#a1a6bd"/>
<rect x="260" y="230" fill="#635c66"/>
<rect x="270" y="230" fill="#25180c"/>
<rect x="280" y="230" fill="#1f130a"/>
<rect x="290" y="230" fill="#170a00"/>
<rect x="300" y="230" fill="#26120d"/>
<rect x="310" y="230" fill="#150a0c"/>
<rect y="240" fill="#50442a"/>
<rect x="10" y="240" fill="#564228"/>
<rect x="20" y="240" fill="#6b5139"/>
<rect x="30" y="240" fill="#5e5047"/>
<rect x="40" y="240" fill="#615449"/>
<rect x="50" y="240" fill="#f9edf2"/>
<rect x="60" y="240" fill="#e8dee8"/>
<rect x="70" y="240" fill="#fefefb"/>
<rect x="80" y="240" fill="#f3f0f4"/>
<rect x="90" y="240" fill="#fefefe"/>
<rect x="100" y="240" fill="#f8f8f8"/>
<rect x="110" y="240" fill="#e5d9e1"/>
<rect x="120" y="240" fill="#fff"/>
<rect x="130" y="240" fill="#fff"/>
<rect x="140" y="240" fill="#fff"/>
<rect x="150" y="240" fill="#fff"/>
<rect x="160" y="240" fill="#fff"/>
<rect x="170" y="240" fill="#fcffff"/>
<rect x="180" y="240" fill="#f2f0f5"/>
<rect x="190" y="240" fill="#f2f0f3"/>
<rect x="200" y="240" fill="#fdffff"/>
<rect x="210" y="240" fill="#f2f3f8"/>
<rect x="220" y="240" fill="#fff"/>
<rect x="230" y="240" fill="#fcfefe"/>
<rect x="240" y="240" fill="#fcfffd"/>
<rect x="250" y="240" fill="#b1bcd5"/>
<rect x="260" y="240" fill="#b4becb"/>
<rect x="270" y="240" fill="#20120e"/>
<rect x="280" y="240" fill="#170a09"/>
<rect x="290" y="240" fill="#181111"/>
<rect x="300" y="240" fill="#24100d"/>
<rect x="310" y="240" fill="#120d0b"/>
<rect y="250" fill="#5f432d"/>
<rect x="10" y="250" fill="#2a1913"/>
<rect x="20" y="250" fill="#493322"/>
<rect x="30" y="250" fill="#524537"/>
<rect x="40" y="250" fill="#e6d9d0"/>
<rect x="50" y="250" fill="#eee8ee"/>
<rect x="60" y="250" fill="#fff"/>
<rect x="70" y="250" fill="#b3b8c7"/>
<rect x="80" y="250" fill="#fff"/>
<rect x="90" y="250" fill="#fff"/>
<rect x="100" y="250" fill="#fff"/>
<rect x="110" y="250" fill="#f1f1f4"/>
<rect x="120" y="250" fill="#fff"/>
<rect x="130" y="250" fill="#e9e5ef"/>
<rect x="140" y="250" fill="#fff"/>
<rect x="150" y="250" fill="#fafafa"/>
<rect x="160" y="250" fill="#feffff"/>
<rect x="170" y="250" fill="#fbfffe"/>
<rect x="180" y="250" fill="#fff"/>
<rect x="190" y="250" fill="#fdfefe"/>
<rect x="200" y="250" fill="#f8fbfa"/>
<rect x="210" y="250" fill="#fff"/>
<rect x="220" y="250" fill="#fff"/>
<rect x="230" y="250" fill="#fff"/>
<rect x="240" y="250" fill="#fbfcfb"/>
<rect x="250" y="250" fill="#dee8f5"/>
<rect x="260" y="250" fill="#bbc2de"/>
<rect x="270" y="250" fill="#a6a7c1"/>
<rect x="280" y="250" fill="#1b1017"/>
<rect x="290" y="250" fill="#1f0d07"/>
<rect x="300" y="250" fill="#271114"/>
<rect x="310" y="250" fill="#2a140e"/>
<rect y="260" fill="#774e27"/>
<rect x="10" y="260" fill="#664e38"/>
<rect x="20" y="260" fill="#211f1e"/>
<rect x="30" y="260" fill="#65564f"/>
<rect x="40" y="260" fill="#e4d4df"/>
<rect x="50" y="260" fill="#fcfffc"/>
<rect x="60" y="260" fill="#fff"/>
<rect x="70" y="260" fill="#fff"/>
<rect x="80" y="260" fill="#fff"/>
<rect x="90" y="260" fill="#fff"/>
<rect x="100" y="260" fill="#fff"/>
<rect x="110" y="260" fill="#fff"/>
<rect x="120" y="260" fill="#fff"/>
<rect x="130" y="260" fill="#fff"/>
<rect x="140" y="260" fill="#fff"/>
<rect x="150" y="260" fill="#fff"/>
<rect x="160" y="260" fill="#fff"/>
<rect x="170" y="260" fill="#fff"/>
<rect x="180" y="260" fill="#fff"/>
<rect x="190" y="260" fill="#fff"/>
<rect x="200" y="260" fill="#fff"/>
<rect x="210" y="260" fill="#fff"/>
<rect x="220" y="260" fill="#fff"/>
<rect x="230" y="260" fill="#f7fdfd"/>
<rect x="240" y="260" fill="#fcfefe"/>
<rect x="250" y="260" fill="#f8fffc"/>
<rect x="260" y="260" fill="#b9c4e2"/>
<rect x="270" y="260" fill="#fcfffe"/>
<rect x="280" y="260" fill="#27170c"/>
<rect x="290" y="260" fill="#1f1517"/>
<rect x="300" y="260" fill="#191612"/>
<rect x="310" y="260" fill="#190901"/>
<rect y="270" fill="#271916"/>
<rect x="10" y="270" fill="#603d2d"/>
<rect x="20" y="270" fill="#634029"/>
<rect x="30" y="270" fill="#fff5ed"/>
<rect x="40" y="270" fill="#f7f7f7"/>
<rect x="50" y="270" fill="#fdfdfd"/>
<rect x="60" y="270" fill="#c4cdd4"/>
<rect x="70" y="270" fill="#fff"/>
<rect x="80" y="270" fill="#fff"/>
<rect x="90" y="270" fill="#fff"/>
<rect x="100" y="270" fill="#fff"/>
<rect x="110" y="270" fill="#fff"/>
<rect x="120" y="270" fill="#fff"/>
<rect x="130" y="270" fill="#fff"/>
<rect x="140" y="270" fill="#fefefe"/>
<rect x="150" y="270" fill="#fff"/>
<rect x="160" y="270" fill="#fff"/>
<rect x="170" y="270" fill="#fff"/>
<rect x="180" y="270" fill="#fff"/>
<rect x="190" y="270" fill="#fff"/>
<rect x="200" y="270" fill="#fff"/>
<rect x="210" y="270" fill="#fff"/>
<rect x="220" y="270" fill="#fff"/>
<rect x="230" y="270" fill="#939fb5"/>
<rect x="240" y="270" fill="#fff"/>
<rect x="250" y="270" fill="#fff"/>
<rect x="260" y="270" fill="#d1dbf3"/>
<rect x="270" y="270" fill="#fdffff"/>
<rect x="280" y="270" fill="#abadc7"/>
<rect x="290" y="270" fill="#220907"/>
<rect x="300" y="270" fill="#1b0811"/>
<rect x="310" y="270" fill="#271718"/>
<rect y="280" fill="#865e3d"/>
<rect x="10" y="280" fill="#564729"/>
<rect x="20" y="280" fill="#dccbb7"/>
<rect x="30" y="280" fill="#fefefc"/>
<rect x="40" y="280" fill="#fff"/>
<rect x="50" y="280" fill="#f5f7fe"/>
<rect x="60" y="280" fill="#fff"/>
<rect x="70" y="280" fill="#fff"/>
<rect x="80" y="280" fill="#fff"/>
<rect x="90" y="280" fill="#fff"/>
<rect x="100" y="280" fill="#fff"/>
<rect x="110" y="280" fill="#fff"/>
<rect x="120" y="280" fill="#fff"/>
<rect x="130" y="280" fill="#fff"/>
<rect x="140" y="280" fill="#fff"/>
<rect x="150" y="280" fill="#fff"/>
<rect x="160" y="280" fill="#fff"/>
<rect x="170" y="280" fill="#fff"/>
<rect x="180" y="280" fill="#fff"/>
<rect x="190" y="280" fill="#fff"/>
<rect x="200" y="280" fill="#fff"/>
<rect x="210" y="280" fill="#fff"/>
<rect x="220" y="280" fill="#fff"/>
<rect x="230" y="280" fill="#fff"/>
<rect x="240" y="280" fill="#fff"/>
<rect x="250" y="280" fill="#fff"/>
<rect x="260" y="280" fill="#d6e7f3"/>
<rect x="270" y="280" fill="#f9f8f9"/>
<rect x="280" y="280" fill="#f8f8f7"/>
<rect x="290" y="280" fill="#171310"/>
<rect x="300" y="280" fill="#291c13"/>
<rect x="310" y="280" fill="#2b1712"/>
<rect y="290" fill="#401707"/>
<rect x="10" y="290" fill="#c4a29b"/>
<rect x="20" y="290" fill="#fffffd"/>
<rect x="30" y="290" fill="#fff"/>
<rect x="40" y="290" fill="#fff"/>
<rect x="50" y="290" fill="#fff"/>
<rect x="60" y="290" fill="#fffdfe"/>
<rect x="70" y="290" fill="#fff"/>
<rect x="80" y="290" fill="#fff"/>
<rect x="90" y="290" fill="#fff"/>
<rect x="100" y="290" fill="#fff"/>
<rect x="110" y="290" fill="#fff"/>
<rect x="120" y="290" fill="#fff"/>
<rect x="130" y="290" fill="#fff"/>
<rect x="140" y="290" fill="#fff"/>
<rect x="150" y="290" fill="#fff"/>
<rect x="160" y="290" fill="#fff"/>
<rect x="170" y="290" fill="#fff"/>
<rect x="180" y="290" fill="#fff"/>
<rect x="190" y="290" fill="#fff"/>
<rect x="200" y="290" fill="#fff"/>
<rect x="210" y="290" fill="#fff"/>
<rect x="220" y="290" fill="#fff"/>
<rect x="230" y="290" fill="#fff"/>
<rect x="240" y="290" fill="#fff"/>
<rect x="250" y="290" fill="#edfcfd"/>
<rect x="260" y="290" fill="#f6f6f4"/>
<rect x="270" y="290" fill="#fcfffe"/>
<rect x="280" y="290" fill="#feffff"/>
<rect x="290" y="290" fill="#1e0b0b"/>
<rect x="300" y="290" fill="#2b160d"/>
<rect x="310" y="290" fill="#321617"/>
<rect y="300" fill="#694e41"/>
<rect x="10" y="300" fill="#fff"/>
<rect x="20" y="300" fill="#fff"/>
<rect x="30" y="300" fill="#fff"/>
<rect x="40" y="300" fill="#fff"/>
<rect x="50" y="300" fill="#fff"/>
<rect x="60" y="300" fill="#cdcbde"/>
<rect x="70" y="300" fill="#fff"/>
<rect x="80" y="300" fill="#fff"/>
<rect x="90" y="300" fill="#fff"/>
<rect x="100" y="300" fill="#fff"/>
<rect x="110" y="300" fill="#fff"/>
<rect x="120" y="300" fill="#fff"/>
<rect x="130" y="300" fill="#fff"/>
<rect x="140" y="300" fill="#fff"/>
<rect x="150" y="300" fill="#fff"/>
<rect x="160" y="300" fill="#fff"/>
<rect x="170" y="300" fill="#fff"/>
<rect x="180" y="300" fill="#fff"/>
<rect x="190" y="300" fill="#fff"/>
<rect x="200" y="300" fill="#fff"/>
<rect x="210" y="300" fill="#fff"/>
<rect x="220" y="300" fill="#fff"/>
<rect x="230" y="300" fill="#fff"/>
<rect x="240" y="300" fill="#fff"/>
<rect x="250" y="300" fill="#fff"/>
<rect x="260" y="300" fill="#fff"/>
<rect x="270" y="300" fill="#f6fdfb"/>
<rect x="280" y="300" fill="#fff"/>
<rect x="290" y="300" fill="#484659"/>
<rect x="300" y="300" fill="#2e1717"/>
<rect x="310" y="300" fill="#251411"/>
<rect y="310" fill="#fff"/>
<rect x="10" y="310" fill="#fff"/>
<rect x="20" y="310" fill="#fff"/>
<rect x="30" y="310" fill="#fefbfb"/>
<rect x="40" y="310" fill="#fff"/>
<rect x="50" y="310" fill="#fff"/>
<rect x="60" y="310" fill="#fffffe"/>
<rect x="70" y="310" fill="#fff"/>
<rect x="80" y="310" fill="#fff"/>
<rect x="90" y="310" fill="#fff"/>
<rect x="100" y="310" fill="#fff"/>
<rect x="110" y="310" fill="#fff"/>
<rect x="120" y="310" fill="#fff"/>
<rect x="130" y="310" fill="#fff"/>
<rect x="140" y="310" fill="#fff"/>
<rect x="150" y="310" fill="#fff"/>
<rect x="160" y="310" fill="#fff"/>
<rect x="170" y="310" fill="#fff"/>
<rect x="180" y="310" fill="#fff"/>
<rect x="190" y="310" fill="#fff"/>
<rect x="200" y="310" fill="#fff"/>
<rect x="210" y="310" fill="#fff"/>
<rect x="220" y="310" fill="#fff"/>
<rect x="230" y="310" fill="#fff"/>
<rect x="240" y="310" fill="#fff"/>
<rect x="250" y="310" fill="#fff"/>
<rect x="260" y="310" fill="#fff"/>
<rect x="270" y="310" fill="#feffff"/>
<rect x="280" y="310" fill="#fff"/>
<rect x="290" y="310" fill="#9b9ab4"/>
<rect x="300" y="310" fill="#2c1916"/>
<rect x="310" y="310" fill="#281c18"/>
</svg>
