<svg xmlns="http://www.w3.org/2000/svg" viewBox="0 0 2569.36 558.68"><defs><style>.cls-1{fill:#fff;}</style></defs><g id="Ebene_2" data-name="Ebene 2"><g id="Ebene_1-2" data-name="Ebene 1"><path class="cls-1" d="M104,237Q0,237,0,170.68V65.28C0,22.78,34,1.7,102.34,1.7h42.84c17,0,25.84,7.48,25.84,22.1,0,15.3-8.84,22.78-25.84,22.78H103.36q-45.9,0-45.9,20.4v30.6H243.1c16,0,23.8,6.8,23.8,20.74s-7.82,21.08-23.8,21.08H57.46v29.24q0,23.46,50,23.46H242.08c17,0,25.84,7.14,25.84,22.1,0,15.3-8.84,22.78-25.84,22.78Z"/><path class="cls-1" d="M403.92,46.58H324.7c-17,0-25.84-7.48-25.84-22.44S307.36,1.7,324.7,1.7H540.6c17.34,0,26.18,7.48,26.18,22.1,0,15.3-8.84,22.78-26.18,22.78H461.72V215.22q0,23.46-28.56,23.46c-19.38,0-29.24-7.82-29.24-23.46Z"/><path class="cls-1" d="M840.13,143.14H662.66v72.08c0,15.64-9.52,23.46-29.24,23.46q-28.56,0-28.56-23.46V23.46Q604.86,0,634.44,0c19,0,28.22,7.82,28.22,23.46v74.8H840.13V22.78C840.13,7.48,849.31,0,868,0c19.72,0,29.24,7.48,29.24,22.78V215.22c0,15.64-9.52,23.46-28.9,23.46-18.7,0-28.22-7.82-28.22-23.46Z"/><path class="cls-1" d="M1055.69,237q-104,0-104-66.3V65.28c0-42.5,34-63.58,102.34-63.58h42.84c17,0,25.84,7.48,25.84,22.1,0,15.3-8.84,22.78-25.84,22.78H1055q-45.9,0-45.9,20.4v30.6h185.64c16,0,23.8,6.8,23.8,20.74s-7.82,21.08-23.8,21.08H1009.11v29.24q0,23.46,50,23.46h134.64c17,0,25.84,7.14,25.84,22.1,0,15.3-8.84,22.78-25.84,22.78Z"/><path class="cls-1" d="M1325,151v64.26c0,15.64-9.52,23.46-28.9,23.46q-28.56,0-28.56-23.46V19.72c0-11.9,7.82-18,22.78-18h160.14c73.44,0,110.5,20.74,110.5,62.9V86c0,40.46-37.06,60.52-110.5,60.52h-32l106.08,46.58c11.56,5.1,17,11.22,17,21.76,0,15.64-10.54,23.8-30.26,23.8-7.82,0-12.24-1.36-21.76-6.12Zm0-44.88h128.52c33.32,0,50-6.8,50-20.06V66.64c0-13.26-16.66-20.06-50-20.06H1328.37c-2,0-3.4,1-3.4,3.06Z"/><path class="cls-1" d="M1669.73,12.58l173.06,147.56V22.78c0-15.3,9.86-22.78,28.9-22.78s28.56,7.48,28.56,22.78V215.22c0,15.64-9.86,23.46-29.92,23.46-13.94,0-20.74-4.42-30.94-13.26L1666.67,77.52v137.7c0,15.64-9.52,23.46-28.9,23.46q-28.56,0-28.56-23.46V23.8c0-16,9.86-23.8,29.58-23.8C1652.39,0,1659.87,4.08,1669.73,12.58Z"/><path class="cls-1" d="M2184.15,180.88h-158.1l-27.54,41.48c-7.14,10.88-16.32,16.32-27.88,16.32-19.72,0-30.6-7.82-30.6-22.78,0-6.12,2-10.88,8.16-19.72L2074.33,15c6.8-9.86,17.34-15,30.26-15,12.58,0,22.78,5.1,29.58,15l126.47,181.22c6.12,8.84,8.16,13.6,8.16,19.72,0,15-10.2,22.78-30.26,22.78-10.54,0-19.71-5.44-26.85-16.32Zm-130.22-41.82h102.34l-51.34-76.84Z"/><path class="cls-1" d="M2402.76,237c-69,0-104-22.1-104-66.64V23.46Q2298.72,0,2327.28,0c19.38,0,28.9,7.82,28.9,23.46V168.3c0,15.64,16.66,23.8,50.32,23.8h137c17,0,25.84,7.14,25.84,22.1,0,15.3-8.84,22.78-25.84,22.78Z"/><path class="cls-1" d="M1037,500.88H878.89l-27.53,41.48c-7.15,10.88-16.32,16.32-27.88,16.32-19.72,0-30.6-7.82-30.6-22.78,0-6.12,2-10.88,8.16-19.72L927.17,335c6.8-9.86,17.34-15,30.26-15,12.58,0,22.78,5.1,29.58,15l126.48,181.22c6.12,8.84,8.16,13.6,8.16,19.72,0,15-10.2,22.78-30.26,22.78-10.54,0-19.72-5.44-26.86-16.32ZM906.77,459.06h102.34l-51.34-76.84Z"/><path class="cls-1" d="M1254.59,557q-104,0-104-66.3V385.28c0-42.5,34-63.58,102.34-63.58h127.84c17,0,25.84,7.48,25.84,22.1,0,15.3-8.84,22.78-25.84,22.78H1253.91q-45.9,0-45.9,20.4V488.64q0,23.46,50,23.46h122.74c17,0,25.84,7.14,25.84,22.1,0,15.3-8.84,22.78-25.84,22.78Z"/><path class="cls-1" d="M1556.85,557q-104,0-104-66.3V385.28c0-42.5,34-63.58,102.34-63.58H1598c17,0,25.84,7.48,25.84,22.1,0,15.3-8.84,22.78-25.84,22.78h-41.82q-45.9,0-45.9,20.4v30.6h185.64c16,0,23.8,6.8,23.8,20.74s-7.82,21.08-23.8,21.08H1510.27v29.24q0,23.46,50,23.46h134.64c17,0,25.84,7.14,25.84,22.1,0,15.3-8.84,22.78-25.84,22.78Z"/><path class="cls-1" d="M1861.83,366.58h707.53V321.7H1861.49c-66.3,0-99.62,19.72-99.62,59.5v22.1c0,36.38,32.64,54.74,97.58,54.74h69.7c29.23,0,43.85,6.12,43.85,19V491c0,13.94-17,21.08-50.65,21.08h-136c-17.34,0-26.18,7.14-26.18,22.1,0,15.3,8.84,22.78,26.18,22.78h136q108.11,0,108.11-61.2v-22.1c0-39.44-35.7-59.5-107.09-59.5h-64.94c-25.84,0-38.76-5.44-38.76-16V384.26C1819.67,372.7,1833.61,366.58,1861.83,366.58Z"/><path class="cls-1" d="M773.15,418.26H589.56V386.64c0-13.26,15-20.06,45.56-20.06h33c17,0,25.84-7.48,25.84-22.78,0-14.62-8.84-22.1-25.84-22.1H0v44.88H534.63a63.61,63.61,0,0,0-2.53,18.36V535.22q0,23.46,28.56,23.46c19,0,28.9-7.82,28.9-23.46V463.14H773.15c16.66,0,25.16-7.48,25.16-22.44S789.81,418.26,773.15,418.26Z"/></g></g></svg>