<svg xmlns="http://www.w3.org/2000/svg" viewBox="0 0 1000 1000"><defs><style>.cls-1{fill:#fff;}</style></defs><g id="Ebene_1" data-name="Ebene 1"><path class="cls-1" d="M621.19,159.74h-244c-82.36,0-149.75,67.39-149.75,149.75V662.76c0,82.37,67.39,149.75,149.75,149.75h244c82.37,0,149.75-67.38,149.75-149.75V309.49C770.94,227.13,703.56,159.74,621.19,159.74Zm-245,300.77a43.11,43.11,0,0,1-43,43H323.05a43.11,43.11,0,0,1-43-43V347.79a43.11,43.11,0,0,1,43-43h10.18a43.11,43.11,0,0,1,43,43Zm195.05,0a43.11,43.11,0,0,1-43,43H518.1a43.11,43.11,0,0,1-43-43V347.79a43.11,43.11,0,0,1,43-43h10.17a43.11,43.11,0,0,1,43,43Z"/></g></svg>