<svg xmlns="http://www.w3.org/2000/svg" viewBox="0 0 1000 1000"><defs><style>.cls-1{fill:#fff;}</style></defs><g id="Ebene_1" data-name="Ebene 1"><path class="cls-1" d="M812.5,365.1V302.6H781.25V271.35H750V240.1H718.75V208.85h-62.5V177.6H343.75v31.25h-62.5V240.1H250v31.25H218.75V302.6H187.5v62.5H156.25V677.6H187.5v62.5h31.25v31.25H250V802.6h31.25v31.25h62.5V865.1h312.5V833.85h62.5V802.6H750V771.35h31.25V740.1H812.5V677.6h31.25V365.1ZM750,521.35H718.75V552.6H687.5v31.25H656.25V615.1h-62.5V583.85H625V552.6h31.25V521.35H687.5V490.1H656.25V458.85H625V427.6H593.75V396.35h62.5V427.6H687.5v31.25h31.25V490.1H750ZM250,490.1h31.25V458.85H312.5V427.6h31.25V396.35h62.5V427.6H375v31.25H343.75V490.1H312.5v31.25h31.25V552.6H375v31.25h31.25V615.1h-62.5V583.85H312.5V552.6H281.25V521.35H250ZM562.5,302.6v62.5H531.25V521.35H500V677.6H468.75v62.5H437.5V646.35h31.25V490.1H500V333.85h31.25v-62.5H562.5Z"/></g></svg>