<svg xmlns="http://www.w3.org/2000/svg" viewBox="0 0 1000 1000"><defs><style>.cls-1{fill:#fff;}</style></defs><g id="Ebene_1" data-name="Ebene 1"><path class="cls-1" d="M812.5,365.1V302.6H781.25V271.35H750V240.1H718.75V208.85h-62.5V177.6H343.75v31.25h-62.5V240.1H250v31.25H218.75V302.6H187.5v62.5H156.25V677.6H187.5v62.5h31.25v31.25H250V802.6h31.25v31.25h62.5V865.1h312.5V833.85h62.5V802.6H750V771.35h31.25V740.1H812.5V677.6h31.25V365.1Zm-93.75,0H687.5v31.25H656.25V427.6H625v31.25H593.75v62.5H562.5v62.5H531.25v62.5H500V677.6H437.5V646.35H406.25v-62.5H375V552.6H343.75V521.35H312.5V490.1h31.25v31.25h62.5V552.6H437.5v31.25H500v-62.5h31.25V490.1H562.5V427.6h31.25V396.35H625V365.1h31.25V333.85h62.5Z"/></g></svg>