<svg xmlns="http://www.w3.org/2000/svg" viewBox="0 0 1000 1000"><defs><style>.cls-1{fill:#fff;}</style></defs><g id="Ebene_1" data-name="Ebene 1"><path class="cls-1" d="M312.5,129.64H125v30.1H93.75V408.58H125v31.25H312.5V408.58h31.25V159.74H312.5ZM218.75,253.49V316H187.5V222.24h31.25Zm93.75,0V316H281.25V222.24H312.5Z"/><path class="cls-1" d="M875,159.74v-30.1H687.5v30.1H656.25V408.58H687.5v31.25H875V408.58h31.25V159.74Zm-62.5,93.75V316H781.25V222.24H812.5Zm-125,31.25v-62.5h31.25V316H687.5Z"/><path class="cls-1" d="M593.75,346.08H406.25v31.25H375V626.17h31.25v31.25h187.5V626.17H625V377.33H593.75ZM500,471.08v61.34H468.75V439.83H500Zm93.75,0v61.34H562.5V439.83h31.25Z"/><path class="cls-1" d="M312.5,563.67H125v31.25H93.75V843.77H125V875H312.5V843.77h31.25V594.92H312.5Zm-62.5,125V750H218.75v-92.6H250ZM125,719.92v-62.5h31.25V750H125Z"/><path class="cls-1" d="M875,563.67H687.5v31.25H656.25V843.77H687.5V875H875V843.77h31.25V594.92H875Zm-93.75,125V750H750v-92.6h31.25Zm93.75,0V750H843.75v-92.6H875Z"/></g></svg>