<svg xmlns="http://www.w3.org/2000/svg" viewBox="0 0 562.5 500"><defs><style>.cls-1{fill:#fff;}</style></defs><g id="Ebene_2" data-name="Ebene 2"><g id="Ebene_1-2" data-name="Ebene 1"><polygon class="cls-1" points="437.5 406.25 468.75 406.25 468.75 375 468.75 343.75 468.75 312.5 468.75 281.25 437.5 281.25 437.5 312.5 437.5 343.75 406.25 343.75 375 343.75 375 375 343.75 375 312.5 375 281.25 375 250 375 218.75 375 187.5 375 187.5 343.75 156.25 343.75 125 343.75 125 312.5 93.75 312.5 93.75 281.25 62.5 281.25 62.5 250 62.5 218.75 62.5 187.5 62.5 156.25 62.5 125 62.5 93.75 31.25 93.75 31.25 125 31.25 156.25 0 156.25 0 187.5 0 218.75 0 250 0 281.25 0 312.5 0 343.75 31.25 343.75 31.25 375 31.25 406.25 62.5 406.25 62.5 437.5 93.75 437.5 93.75 468.75 125 468.75 156.25 468.75 156.25 500 187.5 500 218.75 500 250 500 281.25 500 312.5 500 343.75 500 375 500 406.25 500 406.25 468.75 437.5 468.75 468.75 468.75 468.75 437.5 437.5 437.5 437.5 406.25"/><rect class="cls-1" x="62.5" y="62.5" width="31.25" height="31.25"/><polygon class="cls-1" points="375 0 343.75 0 312.5 0 281.25 0 250 0 218.75 0 187.5 0 156.25 0 156.25 31.25 125 31.25 93.75 31.25 93.75 62.5 125 62.5 125 93.75 93.75 93.75 93.75 125 93.75 156.25 93.75 187.5 93.75 218.75 125 218.75 125 187.5 125 156.25 156.25 156.25 187.5 156.25 187.5 125 218.75 125 250 125 281.25 125 312.5 125 343.75 125 375 125 375 156.25 406.25 156.25 437.5 156.25 437.5 187.5 468.75 187.5 468.75 218.75 500 218.75 500 250 500 281.25 500 312.5 500 343.75 500 375 500 406.25 531.25 406.25 531.25 375 531.25 343.75 562.5 343.75 562.5 312.5 562.5 281.25 562.5 250 562.5 218.75 562.5 187.5 562.5 156.25 531.25 156.25 531.25 125 531.25 93.75 500 93.75 500 62.5 468.75 62.5 468.75 31.25 437.5 31.25 406.25 31.25 406.25 0 375 0"/><rect class="cls-1" x="468.75" y="406.25" width="31.25" height="31.25"/></g></g></svg>