<svg xmlns="http://www.w3.org/2000/svg" viewBox="0 0 2289.64 482.62"><defs><style>.cls-1{fill:#fff;}</style></defs><g id="Ebene_2" data-name="Ebene 2"><g id="Ebene_1-2" data-name="Ebene 1"><path class="cls-1" d="M2289.64,195.25c0-13.61-8.08-20.1-23.56-20.1H2141.15c-30.69,0-45.88-7.44-45.88-21.7V21.39c0-14.26-8.68-21.39-26.35-21.39q-26,0-26,21.39V155.31c0,40.61,31.93,60.76,94.86,60.76h151.9V195.25Z"/><path class="cls-1" d="M2263.31,266.58c-.42,0-.83,0-1.27,0H1670.27c-60.45,0-90.83,18-90.83,54.25V341c0,33.17,29.76,49.91,89,49.91H1732c26.66,0,40,5.58,40,17.36v12.71c0,12.71-15.5,19.22-46.19,19.22h-124c-15.69,0-23.73,6.41-23.86,19.83h0v21.09h147.87q98.58,0,98.58-55.8V405.12c0-36-32.55-54.25-97.65-54.25h-59.21c-23.56,0-35.34-5-35.34-14.57V323.59c0-10.54,12.71-16.12,38.44-16.12H2262c17.86,0,27.27-6.61,27.57-20.1h0V266.55h-26.33Z"/><path class="cls-1" d="M52.39,196.23V0h-26C8.89.09,0,7.22,0,21.39V217.62H26C43.71,217.62,52.39,210.49,52.39,196.23Z"/><path class="cls-1" d="M155,196.23V85.56L249.86,204a35.41,35.41,0,0,0,28.52,13.64c15.19,0,23.56-7.13,28.83-13.64L402.07,85.87V196.23c0,.5,0,1,.05,1.45v19.94h26.3q26,0,26-21.39V0H428.11C412,.31,403.93,6.51,395.87,16.43l-117.49,146L161.2,16.43C153.14,6.51,145.08,0,129,0H102.61V217.62h26C146.32,217.62,155,210.49,155,196.23Z"/><path class="cls-1" d="M530.72,217.62h26.33V196.73c0-.17,0-.33,0-.5V85.56L651.93,204a35.41,35.41,0,0,0,28.52,13.64c15.19,0,23.56-7.13,28.83-13.64L804.13,85.87V196.23c0,14.18,8.9,21.3,26.06,21.38h26.33V23.56c0-1.07,0-2.1-.14-3.1V0H830.17C814.05.31,806,6.51,797.94,16.43l-117.49,146-117.18-146C555.21,6.51,547.15,0,531,0H504.68V196.23Q504.68,217.62,530.72,217.62Z"/><path class="cls-1" d="M1164.35,155.62V61.07q0-59.52-93-59.52H999.13c-62.31,0-93.31,19.84-93.31,59.52v94.55q0,60.45,94.86,60.45h69.13C1132.73,216.07,1164.35,195.92,1164.35,155.62Zm-164.29,19.53q-41.85,0-41.85-21.39V62.31c0-13,13.95-19.84,41.85-19.84h70.36c27.9,0,41.54,6.82,41.54,19.84v91.45c0,14.26-13.64,21.39-41.54,21.39Z"/><path class="cls-1" d="M1435.91,217.62c18,0,27.59-7.44,27.59-21.7,0-9.61-5-15.19-15.5-19.84l-96.72-42.47h29.14c67,0,100.75-18.29,100.75-55.18V58.9c0-38.44-33.79-57.35-100.75-57.35h-146c-13.64,0-20.77,5.58-20.77,16.43V217.62H1240c17.47-.08,26.06-7.2,26.06-21.38V137.64l150,74.4C1424.75,216.38,1428.78,217.62,1435.91,217.62ZM1266,45.26c0-1.86,1.24-2.79,3.1-2.79h114.08c30.38,0,45.57,6.2,45.57,18.29V78.43c0,12.09-15.19,18.29-45.57,18.29H1266Z"/><path class="cls-1" d="M1715.84,196.85c0,13.64,9.92,20.77,27.9,20.77,10.54,0,18.91-5,25.42-14.88l25.11-37.82h144.15l25.11,37.82c6.51,9.92,14.88,14.88,24.49,14.88,18.29,0,27.59-7.13,27.59-20.77,0-5.58-1.86-9.92-7.44-18L1892.85,13.64c-6.2-9-15.5-13.64-27-13.64-11.78,0-21.39,4.65-27.59,13.64l-115,165.23C1717.7,186.93,1715.84,191.27,1715.84,196.85ZM1866.19,56.73,1913,126.79h-93.31Z"/><path class="cls-1" d="M873,278.64c-6.2-9-15.5-13.64-27-13.64-11.78,0-21.39,4.65-27.59,13.64l-115,165.23c-5.58,8.06-7.44,12.4-7.44,18,0,13.64,9.92,20.77,27.9,20.77,10.54,0,18.91-5,25.42-14.88l25.11-37.82H918.52l25.11,37.82c6.51,9.92,14.88,14.88,24.49,14.88,18.29,0,27.59-7.13,27.59-20.77,0-5.58-1.86-9.92-7.44-18ZM799.79,391.79l46.5-70.06,46.81,70.06Z"/><path class="cls-1" d="M1518.37,440.15H1395.61q-45.57,0-45.57-21.39V392.1H1519.3c14.57,0,21.7-6.51,21.7-19.22S1533.87,354,1519.3,354H1350v-27.9q0-18.6,41.85-18.6H1430c15.14,0,23.16-6.53,23.52-19.83h0v-.8s0-.09,0-.14,0-.09,0-.13v-20H1391c-62.31,0-93.31,19.22-93.31,58v96.1q0,60.45,94.86,60.45h149.42V460h0C1541.79,446.56,1533.74,440.15,1518.37,440.15Z"/><path class="cls-1" d="M1229.45,266.55H1115.37c-62.31,0-93.31,19.22-93.31,58v96.1q0,60.45,94.86,60.45h138.57V460h0c-.13-13.42-8.17-19.83-23.55-19.83H1120q-45.57,0-45.57-21.39V326.07q0-18.6,41.85-18.6h115.63c15.14,0,23.16-6.53,23.53-19.83h0V266.55h-26Z"/><path class="cls-1" d="M678,395.51c14.8,0,22.51-6.49,22.91-19.43h0V354.6H510.57V325.76c0-12.09,13.64-18.29,41.54-18.29h30.07c15.5,0,23.56-6.82,23.56-20.77,0-.2,0-.39,0-.58h0V266.55H0V288.3H0C.48,301,9.28,307.47,25.86,307.47H460.49a57.7,57.7,0,0,0-2.31,16.74v137q0,21.39,26,21.39H510.6V456.29h0V395.51Z"/><path class="cls-1" d="M1534.78,42.47h69.46V196.23c0,.16,0,.32,0,.48v20.91h26.64q26,0,26-21.39V42.47h71.92c15.48,0,23.51-6.56,23.84-19.94h0v-21H1532c-13.34,0-20.92,4.88-23,14.59h-.59V42.47h26.33Z"/></g></g></svg>